<?xml version="1.0" encoding="UTF-8"?>
<svg id="Layer_2" data-name="Layer 2" xmlns="http://www.w3.org/2000/svg" viewBox="0 0 684.38 121.65">
  <defs>
    <style>
      .cls-1 {
        fill: #fff;
      }

      .cls-2 {
        fill: #ffce33;
      }
    </style>
  </defs>
  <g id="Layer_1-2" data-name="Layer 1">
    <g>
      <path class="cls-1" d="M53.6,97.68c11.87.83,28.56-4.51,31.81-17.02l-10.91-4.76c-1.13,2.01-5.55,6.02-10.84,7.13-11.1,2.33-23.04-.2-24.74-12.83h48.41c1.12-24.93-11.75-42.2-38.37-38.71-32.89,4.31-34.35,63.45,4.63,66.18ZM72.16,56.97h-33.23c3.5-16.43,30.2-16.86,33.23,0Z"/>
      <path class="cls-1" d="M134.87,97.04c4.34-.69,7.47-2.68,11.34-4.31v4.72h14.23V31.22h-14.24v4.73c-6.35-4.79-15.46-5.61-23.26-4.73-37.01,4.13-34.29,73.1,11.93,65.81ZM125.1,44.72c15.86-2.25,22.53,8.34,21.11,22.92-1.24,12.68-9.25,17.03-21.35,15.62-18.32-2.14-18.6-35.86.24-38.55Z"/>
      <polygon class="cls-2" points="323.63 31.19 306.71 31.19 292.44 51.4 278.18 31.19 261.32 31.19 283.98 63.29 259.82 97.49 276.74 97.49 292.44 75.25 308.2 97.49 325.06 97.49 300.9 63.29 323.63 31.19"/>
      <rect class="cls-1" width="13.29" height="76.79"/>
      <polygon class="cls-2" points="253.51 82.31 240.21 97.45 253.51 97.45 253.51 82.31"/>
      <rect class="cls-1" y="76.79" width="13.29" height="20.77"/>
      <path class="cls-1" d="M214.63,49.26s2.41,2.16,2.8,7.02v47.22l14.24-16.07v-30.2c0-3.17-.33-5.33-1.15-7.36-7.34-18.2-25.31-22.61-42.52-15.82l-.52-2.9-12.78.07v66.23h13.29v-37.37c.22-6.29,2.85-9.25,4.76-11.34,5.52-6.04,16.93-6.26,21.88.53Z"/>
      <g>
        <path class="cls-1" d="M386.19,43.03c-4.56-5.84-11.04-8.76-19.45-8.76s-14.99,3.06-20.71,9.18c-5.72,6.12-8.58,13.63-8.58,22.51s2.86,16.39,8.58,22.51c5.72,6.12,12.62,9.18,20.71,9.18s14.89-2.92,19.45-8.76v7.08h15.49V9.65h-15.49v33.37ZM381.51,78.14c-3.12,3.16-7.08,4.74-11.88,4.74s-8.78-1.58-11.94-4.74c-3.16-3.16-4.74-7.22-4.74-12.18s1.58-9.02,4.74-12.18c3.16-3.16,7.14-4.74,11.94-4.74s8.76,1.58,11.88,4.74c3.12,3.16,4.68,7.22,4.68,12.18s-1.56,9.02-4.68,12.18Z"/>
        <path class="cls-1" d="M423.53,9.65c-2.56,0-4.78.96-6.66,2.88-1.88,1.92-2.82,4.16-2.82,6.72s.94,4.78,2.82,6.66c1.88,1.88,4.1,2.82,6.66,2.82s4.9-.94,6.78-2.82c1.88-1.88,2.82-4.1,2.82-6.66s-.94-4.8-2.82-6.72c-1.88-1.92-4.14-2.88-6.78-2.88Z"/>
        <rect class="cls-1" x="415.84" y="35.94" width="15.49" height="60.02"/>
        <path class="cls-1" d="M491.47,43.39c-4.56-6.08-10.97-9.12-19.21-9.12s-15.49,3-21.25,9c-5.76,6-8.64,13.25-8.64,21.73s2.86,15.83,8.58,21.79c5.72,5.96,12.82,8.94,21.31,8.94s14.64-3.04,19.21-9.12v6.48c0,4.72-1.4,8.36-4.2,10.92-2.8,2.56-6.64,3.84-11.52,3.84-7.44,0-12.69-2.8-15.73-8.4l-13.2,7.56c2.64,4.8,6.42,8.44,11.34,10.92,4.92,2.48,10.62,3.72,17.11,3.72,8.64,0,16.03-2.44,22.15-7.32,6.12-4.88,9.18-11.97,9.18-21.25v-57.14h-15.13v7.44ZM486.73,76.82c-3.16,3.08-7.18,4.62-12.06,4.62s-8.9-1.54-12.06-4.62c-3.16-3.08-4.74-7.02-4.74-11.82s1.58-8.62,4.74-11.71c3.16-3.08,7.18-4.62,12.06-4.62s8.9,1.54,12.06,4.62c3.16,3.08,4.74,6.98,4.74,11.71s-1.58,8.74-4.74,11.82Z"/>
        <path class="cls-1" d="M528.32,9.65c-2.56,0-4.78.96-6.66,2.88-1.88,1.92-2.82,4.16-2.82,6.72s.94,4.78,2.82,6.66c1.88,1.88,4.1,2.82,6.66,2.82s4.9-.94,6.78-2.82,2.82-4.1,2.82-6.66-.94-4.8-2.82-6.72c-1.88-1.92-4.14-2.88-6.78-2.88Z"/>
        <rect class="cls-1" x="520.64" y="35.94" width="15.49" height="60.02"/>
        <path class="cls-1" d="M639.36,43.03c-4.64-5.84-11.16-8.76-19.57-8.76s-14.87,3.06-20.59,9.18c-5.72,6.12-8.58,13.63-8.58,22.51s2.86,16.39,8.58,22.51c5.72,6.12,12.58,9.18,20.59,9.18,8.4,0,14.92-2.92,19.57-8.76v7.08h15.49v-60.02h-15.49v7.08ZM634.62,78.14c-3.16,3.16-7.14,4.74-11.94,4.74s-8.76-1.58-11.88-4.74c-3.12-3.16-4.68-7.22-4.68-12.18s1.56-9.02,4.68-12.18c3.12-3.16,7.08-4.74,11.88-4.74s8.78,1.58,11.94,4.74c3.16,3.16,4.74,7.22,4.74,12.18s-1.58,9.02-4.74,12.18Z"/>
        <rect class="cls-1" x="668.89" y="9.65" width="15.49" height="86.31"/>
        <path class="cls-1" d="M570.27,9.16l-14.24,16.07v10.71h-10.9v14.89h10.44v24.97c0,8.24,2.18,13.97,6.54,17.17,4.36,3.2,11.86,4.2,22.51,3v-14.05c-2.96.16-5.44.18-7.44.06-2-.12-3.52-.66-4.56-1.62-1.04-.96-1.56-2.48-1.56-4.56v-24.97h13.56v-14.89h-14.35V9.16Z"/>
      </g>
    </g>
  </g>
</svg>