<?xml version="1.0" encoding="UTF-8"?>
<svg id="Layer_2" data-name="Layer 2" xmlns="http://www.w3.org/2000/svg" viewBox="0 0 609.79 385.76">
  <defs>
    <style>
      .cls-1 {
        fill: #fff;
      }

      .cls-2 {
        fill: #ffce33;
      }
    </style>
  </defs>
  <g id="Layer_1-2" data-name="Layer 1">
    <g>
      <path class="cls-1" d="M96.22,171.69c20.86,1.46,50.2-7.93,55.91-29.91l-19.17-8.36c-1.99,3.54-9.75,10.58-19.05,12.53-19.52,4.09-40.5-.34-43.48-22.54h85.09c1.97-43.81-20.65-74.17-67.45-68.04-57.82,7.57-60.38,111.53,8.14,116.32ZM128.84,100.13h-58.41c6.15-28.88,53.09-29.63,58.41,0Z"/>
      <path class="cls-1" d="M239.07,170.56c7.64-1.21,13.14-4.71,19.94-7.57v8.3h25.02V54.88h-25.04v8.32c-11.17-8.42-27.18-9.86-40.88-8.32-65.05,7.27-60.28,128.48,20.96,115.67ZM221.89,78.6c27.88-3.95,39.6,14.65,37.11,40.29-2.17,22.28-16.27,29.93-37.53,27.46-32.21-3.76-32.7-63.04.43-67.75Z"/>
      <polygon class="cls-2" points="570.84 54.82 541.1 54.82 516.03 90.34 490.96 54.82 461.33 54.82 501.16 111.25 458.69 171.36 488.44 171.36 516.02 132.27 543.73 171.36 573.36 171.36 530.89 111.25 570.84 54.82"/>
      <rect class="cls-1" x="2.01" width="23.35" height="134.98"/>
      <polygon class="cls-2" points="447.6 144.67 424.23 171.29 447.6 171.29 447.6 144.67"/>
      <rect class="cls-1" x="2.01" y="134.98" width="23.35" height="36.51"/>
      <path class="cls-1" d="M85.67,247.55c-8.02-10.27-19.41-15.4-34.18-15.4s-26.34,5.38-36.4,16.14c-10.06,10.76-15.09,23.95-15.09,39.56s5.03,28.8,15.09,39.56c10.06,10.76,22.19,16.14,36.4,16.14s26.16-5.13,34.18-15.4v12.45h27.22v-151.71h-27.22v58.66ZM77.44,309.27c-5.49,5.56-12.45,8.33-20.89,8.33s-15.44-2.78-20.99-8.33c-5.56-5.56-8.33-12.69-8.33-21.42s2.78-15.86,8.33-21.42c5.56-5.56,12.55-8.33,20.99-8.33s15.4,2.78,20.89,8.33c5.49,5.56,8.23,12.7,8.23,21.42s-2.74,15.86-8.23,21.42Z"/>
      <path class="cls-1" d="M151.29,188.9c-4.5,0-8.41,1.69-11.71,5.06-3.31,3.38-4.96,7.32-4.96,11.82s1.65,8.41,4.96,11.71c3.3,3.31,7.21,4.96,11.71,4.96s8.61-1.65,11.92-4.96c3.3-3.3,4.96-7.21,4.96-11.71s-1.66-8.44-4.96-11.82c-3.31-3.38-7.28-5.06-11.92-5.06Z"/>
      <rect class="cls-1" x="137.78" y="235.11" width="27.22" height="105.5"/>
      <path class="cls-1" d="M270.71,248.19c-8.02-10.69-19.27-16.04-33.76-16.04s-27.22,5.27-37.35,15.83c-10.13,10.55-15.19,23.28-15.19,38.19s5.03,27.82,15.09,38.3c10.05,10.48,22.54,15.72,37.45,15.72s25.74-5.34,33.76-16.04v11.4c0,8.3-2.46,14.7-7.39,19.2-4.93,4.5-11.68,6.75-20.26,6.75-13.08,0-22.3-4.93-27.64-14.77l-23.21,13.29c4.64,8.44,11.29,14.84,19.94,19.2,8.65,4.36,18.67,6.54,30.07,6.54,15.19,0,28.17-4.29,38.93-12.87,10.76-8.58,16.14-21.03,16.14-37.35v-100.44h-26.59v13.08ZM262.38,306.95c-5.56,5.42-12.63,8.12-21.2,8.12s-15.65-2.71-21.21-8.12c-5.56-5.41-8.34-12.34-8.34-20.78s2.78-15.16,8.34-20.57c5.56-5.41,12.62-8.12,21.21-8.12s15.65,2.71,21.2,8.12c5.56,5.42,8.34,12.27,8.34,20.57s-2.78,15.37-8.34,20.78Z"/>
      <path class="cls-1" d="M335.49,188.9c-4.5,0-8.41,1.69-11.71,5.06-3.31,3.38-4.96,7.32-4.96,11.82s1.65,8.41,4.96,11.71c3.3,3.31,7.21,4.96,11.71,4.96s8.61-1.65,11.92-4.96c3.3-3.3,4.96-7.21,4.96-11.71s-1.65-8.44-4.96-11.82c-3.31-3.38-7.28-5.06-11.92-5.06Z"/>
      <rect class="cls-1" x="321.98" y="235.11" width="27.22" height="105.5"/>
      <path class="cls-1" d="M530.66,247.55c-8.16-10.27-19.62-15.4-34.39-15.4s-26.13,5.38-36.19,16.14c-10.06,10.76-15.09,23.95-15.09,39.56s5.03,28.8,15.09,39.56c10.06,10.76,22.12,16.14,36.19,16.14,14.77,0,26.23-5.13,34.39-15.4v12.45h27.22v-105.5h-27.22v12.45ZM522.33,309.27c-5.56,5.56-12.56,8.33-21,8.33s-15.4-2.78-20.89-8.33c-5.49-5.56-8.23-12.69-8.23-21.42s2.74-15.86,8.23-21.42c5.49-5.56,12.45-8.33,20.89-8.33s15.44,2.78,21,8.33c5.56,5.56,8.33,12.7,8.33,21.42s-2.78,15.86-8.33,21.42Z"/>
      <rect class="cls-1" x="582.57" y="188.9" width="27.22" height="151.71"/>
      <g>
        <path class="cls-1" d="M379.27,86.59s4.24,3.81,4.92,12.34v83l25.04-28.25v-53.09c0-5.57-.59-9.37-2.03-12.93-12.89-31.99-44.49-39.75-74.73-27.81l-.92-5.1-22.46.12v116.4h23.36v-65.69c.39-11.05,5.02-16.25,8.37-19.93,9.71-10.62,29.75-11.01,38.47.93Z"/>
        <path class="cls-1" d="M409.22,188.03l-25.04,28.25v18.82h-19.16v26.16h18.36v43.89c0,14.49,3.83,24.55,11.5,30.17,7.66,5.62,20.85,7.38,39.56,5.27v-24.69c-5.21.28-9.57.32-13.08.11-3.52-.21-6.19-1.16-8.02-2.85-1.83-1.69-2.74-4.36-2.74-8.02v-43.89h23.84v-26.16h-25.23v-47.07Z"/>
      </g>
    </g>
  </g>
</svg>